<?xml version="1.0" encoding="UTF-8" standalone="no"?>
<svg width="32px" height="32px" viewBox="0 0 32 32" version="1.1" xmlns="http://www.w3.org/2000/svg" xmlns:xlink="http://www.w3.org/1999/xlink">
    <!-- Generator: Sketch 44.1 (41455) - http://www.bohemiancoding.com/sketch -->
    <title>sort 1</title>
    <desc>Created with Sketch.</desc>
    <defs></defs>
    <g id="Page-2-Copy" stroke="none" stroke-width="1" fill="none" fill-rule="evenodd">
        <g id="201" stroke="#979797">
            <path d="M12.9918031,0 C12.4440454,0 12,0.443864822 12,1 L12,1 C12,1.55228475 12.4553056,2 12.9918031,2 L31.0081969,2 C31.5559546,2 32,1.55613518 32,1 L32,1 C32,0.44771525 31.5446944,0 31.0081969,0 L12.9918031,0 L12.9918031,0 Z M12.9918031,5 C12.4440454,5 12,5.44386482 12,6 L12,6 C12,6.55228475 12.4553056,7 12.9918031,7 L31.0081969,7 C31.5559546,7 32,6.55613518 32,6 L32,6 C32,5.44771525 31.5446944,5 31.0081969,5 L12.9918031,5 L12.9918031,5 Z M12.9918031,10 C12.4440454,10 12,10.4438648 12,11 L12,11 C12,11.5522847 12.4553056,12 12.9918031,12 L31.0081969,12 C31.5559546,12 32,11.5561352 32,11 L32,11 C32,10.4477153 31.5446944,10 31.0081969,10 L12.9918031,10 L12.9918031,10 Z M12.9918031,15 C12.4440454,15 12,15.4438648 12,16 L12,16 C12,16.5522847 12.4553056,17 12.9918031,17 L31.0081969,17 C31.5559546,17 32,16.5561352 32,16 L32,16 C32,15.4477153 31.5446944,15 31.0081969,15 L12.9918031,15 L12.9918031,15 Z" id="Rectangle-586" stroke="none" fill="#95909E"></path>
            <path d="M6,28.6300979 L6,0.992786407 C6,0.452362061 6.44771525,-1.01453063e-16 7,0 C7.55613518,1.02160375e-16 8,0.444485615 8,0.992786407 L8,28.5423004 L11.9058487,24.6364517 C12.296373,24.2459274 12.929538,24.2459274 13.3200623,24.6364517 C13.7105865,25.026976 13.7105865,25.6601409 13.3200623,26.0506652 L8.91762237,30.4531051 L7.85985114,31.5108763 C7.68545562,31.8017194 7.36564541,32 7,32 C6.99580874,32 6.99162387,31.9999748 6.98744551,31.9999244 C6.72117897,32.0082226 6.45222926,31.9107543 6.24899444,31.7075195 L0.592140191,26.0506652 C0.201615899,25.6601409 0.201615899,25.026976 0.592140191,24.6364517 C0.982664483,24.2459274 1.61582946,24.2459274 2.00635375,24.6364517 L6,28.6300979 L6,28.6300979 Z" id="Rectangle-509" stroke="none" fill="#2A2630"></path>
        </g>
    </g>
</svg>